Coordinates
version=1
nRows=32
nColumns=12
inDegrees=yes

Units are S.I. units (second, meters, Newtons, ...)
Angles are in degrees

endheader
time	SC_y	SC_z	SC_x	AC_y	AC_z	AC_x	GH_y	GH_z	GH_yy	EL_x	PS_y
       0.0              -54.29          37.96           57.4          62.46          3.047          7.182         -112.4          8.576         -162.3          38.61          90.18
   0.01561              -54.29          37.96          57.39          62.46          3.046          7.181         -112.3           8.58         -162.2          38.62          90.19
   0.03122              -54.29          37.96          57.39          62.46          3.044          7.181         -112.3          8.584         -162.2          38.63          90.19
   0.04683              -54.29          37.96          57.38          62.45          3.043          7.181         -112.3          8.589         -162.1          38.64          90.19
   0.06244              -54.29          37.96          57.38          62.45          3.042          7.181         -112.2          8.593         -162.1          38.65           90.2
   0.07805              -54.29          37.96          57.37          62.45           3.04           7.18         -112.2          8.598         -162.1          38.66           90.2
   0.09366              -54.29          37.96          57.37          62.44          3.038           7.18         -112.1          8.603         -162.0          38.68           90.2
    0.1093              -54.29          37.96          57.36          62.44          3.036           7.18         -112.1          8.609         -162.0          38.69          90.21
    0.1249              -54.29          37.96          57.36          62.44          3.034          7.179         -112.0          8.615         -161.9          38.71          90.21
    0.1405              -54.29          37.96          57.35          62.43          3.032          7.179         -112.0          8.621         -161.9          38.72          90.22
    0.1561              -54.29          37.96          57.34          62.43           3.03          7.179         -111.9          8.628         -161.8          38.74          90.22
    0.1717              -54.29          37.96          57.34          62.42          3.028          7.178         -111.8          8.635         -161.7          38.76          90.23
    0.1873              -54.29          37.96          57.33          62.42          3.025          7.178         -111.8          8.643         -161.7          38.78          90.24
    0.2029              -54.29          37.96          57.32          62.41          3.022          7.177         -111.7          8.652         -161.6           38.8          90.24
    0.2185              -54.29          37.96          57.31          62.41          3.019          7.177         -111.6          8.661         -161.5          38.83          90.25
    0.2342              -54.29          37.96           57.3           62.4          3.016          7.176         -111.5          8.671         -161.4          38.85          90.26
    0.2498              -54.29          37.96          57.29           62.4          3.012          7.175         -111.4          8.682         -161.3          38.88          90.27
    0.2654              -54.29          37.96          57.27          62.39          3.009          7.175         -111.3          8.694         -161.2          38.91          90.27
     0.281              -54.29          37.96          57.26          62.38          3.004          7.174         -111.2          8.707         -161.1          38.95          90.28
    0.2966              -54.29          37.97          57.25          62.37            3.0          7.173         -111.1          8.721         -161.0          38.98           90.3
    0.3122              -54.29          37.97          57.23          62.36          2.995          7.172         -110.9          8.737         -160.9          39.02          90.31
    0.3278              -54.29          37.97          57.21          62.35          2.989          7.171         -110.8          8.754         -160.7          39.07          90.32
    0.3434              -54.29          37.97          57.19          62.34          2.983           7.17         -110.6          8.773         -160.5          39.12          90.34
     0.359              -54.29          37.97          57.17          62.33          2.976          7.169         -110.4          8.794         -160.4          39.17          90.35
    0.3746              -54.29          37.97          57.14          62.31          2.968          7.167         -110.2          8.818         -160.2          39.23          90.37
    0.3903              -54.29          37.97          57.12           62.3           2.96          7.166         -110.0          8.844         -159.9           39.3          90.39
    0.4059              -54.29          37.98          57.09          62.28           2.95          7.164         -109.7          8.873         -159.7          39.38          90.41
    0.4215              -54.29          37.98          57.05          62.26          2.939          7.162         -109.4          8.906         -159.4          39.46          90.44
    0.4371              -54.29          37.98          57.01          62.23          2.927           7.16         -109.1          8.943         -159.1          39.56          90.47
    0.4527              -54.29          37.98          56.97          62.21          2.913          7.157         -108.7          8.985         -158.7          39.67           90.5
    0.4683              -54.29          37.99          56.92          62.18          2.898          7.155         -108.3          9.034         -158.3           39.8          90.54
    0.4839              -54.29          37.99          56.86          62.14          2.879          7.151         -107.8          9.089         -157.8          39.94          90.58
